<?xml version="1.0" encoding="UTF-8"?>
<svg width="800" height="600" xmlns="http://www.w3.org/2000/svg">
  <defs>
    <style>
      .node { fill: #e1f5fe; stroke: #01579b; stroke-width: 2; }
      .start { fill: #c8e6c9; stroke: #2e7d32; }
      .end { fill: #ffcdd2; stroke: #c62828; }
      .text { font-family: Arial, sans-serif; font-size: 14px; text-anchor: middle; }
      .edge { stroke: #333; stroke-width: 2; fill: none; marker-end: url(#arrowhead); }
      .condition { fill: #fff9c4; stroke: #f57f17; }
    </style>
    <marker id="arrowhead" markerWidth="10" markerHeight="7" refX="9" refY="3.5" orient="auto">
      <polygon points="0 0, 10 3.5, 0 7" fill="#333" />
    </marker>
  </defs>
  
  <!-- START node -->
  <rect x="350" y="50" width="100" height="40" rx="20" class="start" />
  <text x="400" y="75" class="text">START</text>
  
  <!-- Search Knowledge node -->
  <rect x="300" y="150" width="200" height="60" rx="10" class="node" />
  <text x="400" y="175" class="text">Search Knowledge</text>
  <text x="400" y="195" class="text" style="font-size: 12px;">(Buscar en vectores)</text>
  
  <!-- Decision diamond -->
  <polygon points="400,280 480,320 400,360 320,320" class="condition" />
  <text x="400" y="320" class="text" style="font-size: 12px;">¿Datos</text>
  <text x="400" y="335" class="text" style="font-size: 12px;">relevantes?</text>
  
  <!-- Generate Response node -->
  <rect x="150" y="450" width="180" height="60" rx="10" class="node" />
  <text x="240" y="475" class="text">Generate Response</text>
  <text x="240" y="495" class="text" style="font-size: 12px;">(Con contexto RAG)</text>
  
  <!-- No Data Response node -->
  <rect x="470" y="450" width="180" height="60" rx="10" class="node" />
  <text x="560" y="475" class="text">No Data Response</text>
  <text x="560" y="495" class="text" style="font-size: 12px;">(Sin información)</text>
  
  <!-- END node -->
  <rect x="350" y="550" width="100" height="40" rx="20" class="end" />
  <text x="400" y="575" class="text">END</text>
  
  <!-- Edges -->
  <!-- START to Search Knowledge -->
  <line x1="400" y1="90" x2="400" y2="150" class="edge" />
  
  <!-- Search Knowledge to Decision -->
  <line x1="400" y1="210" x2="400" y2="280" class="edge" />
  
  <!-- Decision to Generate Response (YES) -->
  <line x1="350" y1="330" x2="240" y2="450" class="edge" />
  <text x="280" y="380" class="text" style="font-size: 12px; fill: green;">Sí</text>
  
  <!-- Decision to No Data Response (NO) -->
  <line x1="450" y1="330" x2="560" y2="450" class="edge" />
  <text x="520" y="380" class="text" style="font-size: 12px; fill: red;">No</text>
  
  <!-- Generate Response to END -->
  <line x1="240" y1="510" x2="380" y2="550" class="edge" />
  
  <!-- No Data Response to END -->
  <line x1="560" y1="510" x2="420" y2="550" class="edge" />
  
  <!-- Title -->
  <text x="400" y="30" class="text" style="font-size: 18px; font-weight: bold;">Gemelo Digital - Flujo de Agente LangGraph</text>
</svg>